<svg width="737" height="191" xmlns="http://www.w3.org/2000/svg" xmlns:xlink="http://www.w3.org/1999/xlink" xml:space="preserve" overflow="hidden"><g transform="translate(-57 420)"><g><g><g><path d="M248.49 200.301C243.952 200.301 239.991 199.69 236.605 198.476 233.219 197.256 230.583 195.32 228.711 192.656 226.837 189.999 225.894 186.496 225.894 182.153L242.988 182.153C243.071 183.693 243.626 184.928 244.646 185.85 245.666 186.773 247.414 187.238 249.877 187.238 251.869 187.238 253.367 186.974 254.373 186.44 255.379 185.906 255.941 185.163 256.052 184.213 256.19 183.429 256.052 182.694 255.649 182.007 255.24 181.32 254.31 180.571 252.854 179.759 251.396 178.947 249.142 177.969 246.089 176.818 243.425 175.84 240.872 174.507 238.423 172.828 235.974 171.15 234.073 168.965 232.734 166.273 231.395 163.581 231 160.251 231.555 156.275 232.062 152.974 233.372 150.268 235.502 148.166 237.632 146.064 240.372 144.53 243.738 143.566 247.102 142.601 250.862 142.158 255.039 142.241 259.153 142.297 262.857 142.906 266.146 144.065 269.434 145.231 272.064 147.049 274.02 149.525 275.976 152.001 276.989 155.248 277.044 159.252L260.033 159.252C259.922 157.795 259.285 156.678 258.126 155.894 256.96 155.11 255.504 154.714 253.734 154.714 252.443 154.714 251.3 154.923 250.293 155.346 249.287 155.769 248.711 156.595 248.573 157.823 248.517 158.385 248.676 158.946 249.059 159.501 249.433 160.063 250.341 160.715 251.771 161.458 253.2 162.2 255.441 163.13 258.493 164.254 262.135 165.572 265.161 167.146 267.568 168.978 269.975 170.809 271.681 173.016 272.695 175.596 273.701 178.17 273.929 181.223 273.367 184.754 272.777 188.563 271.349 191.601 269.08 193.87 266.812 196.139 263.912 197.776 260.388 198.782 256.863 199.788 252.895 200.294 248.504 200.294Z" fill="#000000" fill-rule="nonzero" fill-opacity="1" transform="matrix(1.00912 0 0 1 28.4875 -457.113)"/><path d="M289.067 199.628 293.264 180.009 282.262 143.087 299.904 143.087 304.482 164.594 318.219 143.087 337.082 143.087 310.407 180.009 306.12 199.628 289.067 199.628Z" fill="#000000" fill-rule="nonzero" fill-opacity="1" transform="matrix(1.00912 0 0 1 28.4875 -457.113)"/><path d="M352.831 200.301C348.293 200.301 344.331 199.69 340.947 198.476 337.561 197.256 334.924 195.32 333.052 192.656 331.178 189.999 330.235 186.496 330.235 182.153L347.329 182.153C347.412 183.693 347.967 184.928 348.987 185.85 350.007 186.773 351.755 187.238 354.218 187.238 356.209 187.238 357.707 186.974 358.714 186.44 359.72 185.906 360.282 185.163 360.392 184.213 360.531 183.429 360.392 182.694 359.99 182.007 359.581 181.32 358.651 180.571 357.194 179.759 355.737 178.947 353.482 177.969 350.43 176.818 347.766 175.84 345.213 174.507 342.764 172.828 340.315 171.15 338.415 168.965 337.075 166.273 335.737 163.581 335.34 160.251 335.896 156.275 336.402 152.974 337.714 150.268 339.843 148.166 341.973 146.064 344.714 144.53 348.078 143.566 351.443 142.601 355.203 142.158 359.379 142.241 363.494 142.297 367.198 142.906 370.487 144.065 373.775 145.231 376.404 147.049 378.361 149.525 380.317 152.001 381.33 155.248 381.385 159.252L364.375 159.252C364.263 157.795 363.625 156.678 362.466 155.894 361.301 155.11 359.844 154.714 358.075 154.714 356.785 154.714 355.64 154.923 354.634 155.346 353.628 155.769 353.052 156.595 352.913 157.823 352.858 158.385 353.017 158.946 353.399 159.501 353.774 160.063 354.683 160.715 356.111 161.458 357.541 162.2 359.781 163.13 362.835 164.254 366.477 165.572 369.501 167.146 371.909 168.978 374.316 170.809 376.022 173.016 377.035 175.596 378.041 178.17 378.27 181.223 377.708 184.754 377.119 188.563 375.69 191.601 373.421 193.87 371.152 196.139 368.253 197.776 364.728 198.782 361.204 199.788 357.235 200.294 352.844 200.294Z" fill="#000000" fill-rule="nonzero" fill-opacity="1" transform="matrix(1.00912 0 0 1 28.4875 -457.113)"/><path d="M391.265 199.628 400.38 156.782 386.436 156.782 389.294 143.087 433.861 143.087 430.919 156.782 416.975 156.782 407.776 199.628 391.272 199.628Z" fill="#000000" fill-rule="nonzero" fill-opacity="1" transform="matrix(1.00912 0 0 1 28.4875 -457.113)"/><path d="M428.062 199.628 440.119 143.087 480.19 143.087 477.249 156.699 453.682 156.699 452.128 164.427 472.961 164.427 470.103 177.532 449.394 177.532 447.59 186.017 471.074 186.017 468.133 199.628 428.062 199.628Z" fill="#000000" fill-rule="nonzero" fill-opacity="1" transform="matrix(1.00912 0 0 1 28.4875 -457.113)"/><path d="M478.046 199.628 490.104 143.087 508.669 143.087 515.807 164.004 532.062 143.087 551.591 143.087 539.534 199.628 523.196 199.628 530.841 164.011 517.528 181.23 507.698 181.23 501.69 164.011 494.044 199.628 478.039 199.628Z" fill="#000000" fill-rule="nonzero" fill-opacity="1" transform="matrix(1.00912 0 0 1 28.4875 -457.113)"/><path d="M574.867 200.301C570.329 200.301 566.369 199.69 562.983 198.476 559.597 197.263 556.961 195.32 555.088 192.656 553.214 189.999 552.271 186.496 552.271 182.153L569.365 182.153C569.449 183.693 570.004 184.928 571.023 185.85 572.043 186.773 573.792 187.238 576.254 187.238 578.246 187.238 579.744 186.974 580.75 186.44 581.756 185.906 582.318 185.163 582.429 184.213 582.567 183.429 582.429 182.694 582.026 182.007 581.624 181.32 580.688 180.571 579.231 179.759 577.773 178.947 575.519 177.969 572.466 176.818 569.809 175.84 567.249 174.507 564.801 172.828 562.351 171.15 560.451 168.965 559.111 166.273 557.773 163.581 557.378 160.251 557.933 156.275 558.439 152.974 559.75 150.268 561.88 148.166 564.009 146.064 566.75 144.53 570.115 143.566 573.48 142.601 577.239 142.158 581.416 142.241 585.53 142.297 589.235 142.906 592.523 144.065 595.812 145.231 598.441 147.049 600.397 149.525 602.353 152.001 603.367 155.248 603.422 159.252L586.411 159.252C586.299 157.795 585.662 156.678 584.503 155.894 583.345 155.11 581.881 154.714 580.112 154.714 578.822 154.714 577.677 154.923 576.67 155.346 575.664 155.769 575.088 156.595 574.95 157.823 574.895 158.385 575.055 158.946 575.436 159.501 575.81 160.063 576.719 160.715 578.149 161.458 579.577 162.2 581.818 163.13 584.871 164.254 588.513 165.572 591.538 167.146 593.945 168.978 596.353 170.809 598.059 173.016 599.073 175.596 600.078 178.17 600.307 181.223 599.745 184.754 599.155 188.563 597.726 191.601 595.457 193.87 593.189 196.139 590.289 197.776 586.765 198.782 583.24 199.788 579.273 200.294 574.881 200.294Z" fill="#000000" fill-rule="nonzero" fill-opacity="1" transform="matrix(1.00912 0 0 1 28.4875 -457.113)"/><path d="M237.98 128.345 269.483 71.8037 286.792 71.8037 294.52 128.345 277.676 128.345 276.962 119.735 259.868 119.735 255.455 128.345 237.98 128.345ZM266.035 106.922 276.282 106.922 275.06 88.107 266.028 106.922Z" fill="#000000" fill-rule="nonzero" fill-opacity="1" transform="matrix(1.00912 0 0 1 28.4875 -457.113)"/><path d="M325.808 129.184C320.321 129.184 315.568 127.998 311.545 125.632 307.528 123.266 304.601 119.805 302.769 115.253 300.938 110.703 300.549 105.139 301.61 98.5549 302.533 92.9564 304.385 88.0862 307.153 83.9583 309.929 79.8305 313.543 76.6254 318.011 74.3637 322.478 72.0951 327.737 70.9643 333.787 70.9643 336.756 70.9643 339.67 71.3667 342.521 72.1645 345.372 72.9623 347.954 74.1972 350.249 75.8622 352.546 77.5272 354.364 79.671 355.709 82.2864 357.056 84.9019 357.686 88.0168 357.597 91.6313L340.585 91.6313C340.475 90.0634 340.113 88.773 339.517 87.767 338.914 86.7611 338.005 86.0049 336.784 85.4984 335.563 84.992 333.96 84.7423 331.976 84.7423 329.118 84.7423 326.745 85.4984 324.858 87.0108 322.971 88.5233 321.493 90.4519 320.425 92.7898 319.363 95.1278 318.622 97.5421 318.198 100.033 317.803 102.634 317.803 105.118 318.198 107.47 318.587 109.821 319.53 111.743 321.015 113.221 322.499 114.705 324.671 115.448 327.522 115.448 329.478 115.448 331.164 115.212 332.565 114.733 333.967 114.255 335.126 113.519 336.055 112.527 336.978 111.535 337.665 110.294 338.116 108.808L327.529 108.808 329.673 96.335 357.27 96.335 355.549 104.188C354.794 107.691 353.732 110.952 352.358 113.978 350.985 117.002 349.167 119.652 346.899 121.935 344.63 124.217 341.772 125.993 338.331 127.27 334.89 128.546 330.714 129.177 325.815 129.177Z" fill="#000000" fill-rule="nonzero" fill-opacity="1" transform="matrix(1.00912 0 0 1 28.4875 -457.113)"/><path d="M359.289 128.345 371.347 71.8037 411.418 71.8037 408.476 85.4152 384.909 85.4152 383.355 93.1436 404.189 93.1436 401.331 106.249 380.623 106.249 378.819 114.733 402.302 114.733 399.36 128.345 359.289 128.345Z" fill="#000000" fill-rule="nonzero" fill-opacity="1" transform="matrix(1.00912 0 0 1 28.4875 -457.113)"/><path d="M409.274 128.345 421.332 71.8037 437.253 71.8037 450.907 103.814 457.629 71.8037 473.127 71.8037 461.07 128.345 445.149 128.345 431.537 96.0852 424.69 128.345 409.274 128.345Z" fill="#000000" fill-rule="nonzero" fill-opacity="1" transform="matrix(1.00912 0 0 1 28.4875 -457.113)"/><path d="M481.522 128.345 490.638 85.4984 476.694 85.4984 479.551 71.8037 524.119 71.8037 521.177 85.4984 507.232 85.4984 498.034 128.345 481.529 128.345Z" fill="#000000" fill-rule="nonzero" fill-opacity="1" transform="matrix(1.00912 0 0 1 28.4875 -457.113)"/><path d="M518.319 128.345 530.376 71.8037 546.88 71.8037 534.907 128.345 518.312 128.345Z" fill="#000000" fill-rule="nonzero" fill-opacity="1" transform="matrix(1.00912 0 0 1 28.4875 -457.113)"/><path d="M574.312 129.101C568.908 129.101 564.204 127.963 560.201 125.681 556.198 123.398 553.256 120.006 551.383 115.497 549.503 110.987 549.087 105.375 550.12 98.6521 551.098 92.3806 553.083 87.2051 556.066 83.1328 559.049 79.0604 562.768 76.0287 567.222 74.0376 571.676 72.0465 576.588 71.0545 581.964 71.0545 587.341 71.0545 591.559 71.9842 595.215 73.8504 598.871 75.7096 601.625 78.2695 603.491 81.5163 605.351 84.7631 606.169 88.5024 605.948 92.7343L588.853 92.7343C588.853 91.1942 588.527 89.8275 587.868 88.6412 587.209 87.4549 586.273 86.5182 585.051 85.8453 583.83 85.1724 582.367 84.8394 580.66 84.8394 577.857 84.8394 575.499 85.4916 573.583 86.7958 571.669 88.1001 570.143 89.8969 569.026 92.1932 567.902 94.4895 567.103 97.1328 566.632 100.13 566.181 102.988 566.167 105.562 566.59 107.858 567.014 110.155 567.95 111.965 569.407 113.297 570.864 114.629 572.918 115.295 575.582 115.295 578.44 115.295 580.854 114.546 582.824 113.047 584.801 111.549 586.064 109.232 586.626 106.096L603.637 106.096C602.097 114.019 598.801 119.84 593.744 123.551 588.687 127.263 582.214 129.115 574.319 129.115Z" fill="#000000" fill-rule="nonzero" fill-opacity="1" transform="matrix(1.00912 0 0 1 28.4875 -457.113)"/><path d="M618.137 200.398 630.11 143.857 635.529 143.857 624.401 195.819 652.123 195.819 651.159 200.398 618.143 200.398Z" fill="#000000" fill-rule="nonzero" fill-opacity="1" transform="matrix(1.00912 0 0 1 28.4875 -457.113)"/><path d="M654.004 200.398 687.651 143.857 693.402 143.857 702.601 200.398 697.183 200.398 694.956 182.84 669.918 182.84 659.838 200.398 653.997 200.398ZM672.576 178.219 694.082 178.219 689.545 149.276 672.576 178.219Z" fill="#000000" fill-rule="nonzero" fill-opacity="1" transform="matrix(1.00912 0 0 1 28.4875 -457.113)"/><path d="M710.712 200.398 722.685 143.857 739.447 143.857C743.228 143.857 746.391 144.516 748.937 145.834 751.483 147.153 753.294 149.012 754.355 151.42 755.417 153.826 755.591 156.671 754.862 159.946 754.3 162.492 752.974 164.719 750.872 166.626 748.77 168.535 746.224 169.776 743.228 170.366 745.579 170.928 747.619 171.892 749.339 173.266 751.06 174.639 752.288 176.402 753.016 178.559 753.745 180.717 753.787 183.29 753.141 186.287 752.607 188.916 751.434 191.31 749.61 193.447 747.785 195.584 745.281 197.284 742.09 198.532 738.899 199.781 734.951 200.398 730.247 200.398L710.719 200.398ZM716.969 195.819 730.747 195.819C735.312 195.819 739.127 194.945 742.194 193.197 745.26 191.449 747.154 188.861 747.883 185.448 748.694 181.445 747.973 178.392 745.718 176.29 743.463 174.188 740.085 173.141 735.575 173.141L721.798 173.141 716.969 195.826ZM722.852 168.479 735.076 168.479C739.336 168.479 742.694 167.639 745.156 165.96 747.619 164.281 749.16 161.999 749.776 159.113 750.449 155.783 749.86 153.167 748.015 151.281 746.169 149.393 742.985 148.443 738.483 148.443L727.14 148.443 722.852 168.479Z" fill="#000000" fill-rule="nonzero" fill-opacity="1" transform="matrix(1.00912 0 0 1 28.4875 -457.113)"/><path d="M131.217 44.0258C131.258 44.3656 130.926 44.5877 130.71 44.7889 129.677 45.7531 128.331 46.6482 127.242 47.5916 113.339 59.6422 100.698 75.9454 91.888 92.1238 85.5193 103.828 80.4549 116.343 78.3042 129.586L78.0336 129.767C71.7482 112.77 66.3994 94.9336 65.1575 76.7086 64.9564 73.7185 64.8246 70.5619 64.88 67.5718 64.8939 66.8225 64.9633 64.1655 65.3171 63.6799 81.884 49.6174 104.404 42.881 126.048 43.6858 127.727 43.7482 129.545 44.1853 131.21 44.0327Z" fill="#000000" fill-rule="nonzero" fill-opacity="1" transform="matrix(1.00912 0 0 1 28.4875 -457.113)"/><path d="M168.763 57.1655C176.977 62.549 186.669 70.8949 192.17 79.1159 192.323 79.3379 193.204 80.552 193.045 80.6976 187.64 79.9137 182.166 79.4211 176.706 79.331 153.209 78.9355 123.384 83.6739 102.447 94.552L95.4817 98.5203C96.5153 96.4112 97.6115 94.2884 98.8047 92.2556 109.093 74.655 122.955 58.5114 138.557 45.5034 139.257 45.1982 144.829 46.5302 145.966 46.8147 153.965 48.8404 161.874 52.6353 168.763 57.1585Z" fill="#000000" fill-rule="nonzero" fill-opacity="1" transform="matrix(1.00912 0 0 1 28.4875 -457.113)"/><path d="M88.7037 162.027C81.4122 159.619 74.2596 156.685 67.3845 153.264 56.6521 147.929 44.664 140.423 35.8603 132.229 35.2983 131.709 32.3429 128.851 32.2111 128.415 31.9752 127.637 32.2319 125.528 32.329 124.606 33.0435 117.599 34.9514 110.266 37.3449 103.654 41.9791 90.8751 49.2983 79.1229 58.9901 69.66 58.9276 86.2339 62.1605 102.544 67.2943 118.216 72.4281 133.888 79.5044 148.512 88.7175 162.02L88.7175 162.02Z" fill="#000000" fill-rule="nonzero" fill-opacity="1" transform="matrix(1.00912 0 0 1 28.4875 -457.113)"/><path d="M151.884 164.912C150.531 168.666 149.276 172.461 147.777 176.158 142.4 189.485 134.686 203.451 125.792 214.738 123.461 217.693 120.943 220.503 118.223 223.112 114.629 223.216 111.001 223.077 107.435 222.612 100.463 221.711 92.4499 219.463 85.9425 216.819 77.111 213.233 68.4529 207.766 61.7651 200.988 68.0852 200.503 74.3637 199.49 80.5381 198.074 103.897 192.711 126.299 181.902 146.334 168.985L151.877 164.919Z" fill="#000000" fill-rule="nonzero" fill-opacity="1" transform="matrix(1.00912 0 0 1 28.4875 -457.113)"/><path d="M198.081 87.5381C209.057 104.251 213.593 125.278 210.153 145.043 203.104 136.6 194.82 129.045 186.135 122.302 170.047 109.821 151.738 98.9088 132.66 91.7284L129.191 90.6254C129.191 90.3895 133.229 89.6679 133.729 89.5777 144.578 87.5243 155.838 86.1229 166.863 85.6164 177.247 85.1446 187.904 85.3597 198.074 87.5311Z" fill="#000000" fill-rule="nonzero" fill-opacity="1" transform="matrix(1.00912 0 0 1 28.4875 -457.113)"/><path d="M32.2943 137.578C32.3429 137.87 32.7244 138.238 32.9395 138.418 52.1566 154.77 77.2844 166.987 101.573 173.994L117.321 178.067C116.384 178.552 115.413 179.01 114.442 179.419 103.987 183.88 93.1784 188.161 82.1615 191.039 73.5312 193.294 64.4222 194.973 55.4935 194.189 40.6471 179.6 33.2586 158.288 31.9475 137.655L32.2805 137.571Z" fill="#000000" fill-rule="nonzero" fill-opacity="1" transform="matrix(1.00912 0 0 1 28.4875 -457.113)"/><path d="M180.439 202.029C179.884 202.861 175.867 205.72 174.806 206.475 160.722 216.487 143.614 222.584 126.313 223.487 126.194 223.341 126.854 222.563 126.992 222.384 131.613 216.452 135.852 211.457 140 205.025 152.695 185.344 160.959 162.873 164.087 139.605 164.33 139.619 164.35 139.868 164.427 140.021 165.114 141.338 165.787 143.122 166.37 144.53 173.71 162.374 179.231 181.73 180.821 201.03 180.841 201.418 180.647 201.716 180.446 202.022L180.446 202.022Z" fill="#000000" fill-rule="nonzero" fill-opacity="1" transform="matrix(1.00912 0 0 1 28.4875 -457.113)"/><path d="M168.083 117.265C181.334 125.646 197.415 137.828 206.83 150.496 207.253 151.065 208.841 153.139 208.932 153.667 209.001 154.042 208.82 155.013 208.751 155.45 206.579 168.645 198.97 181.452 190.832 191.824 189.596 193.391 188.022 194.945 186.863 196.499 186.717 196.694 186.621 196.929 186.6 197.172 186.28 197.096 186.259 196.729 186.211 196.464 185.927 194.904 185.947 192.961 185.739 191.338 182.09 163.865 171.448 136.6 157.101 113.082 156.788 112.569 155.366 110.661 155.269 110.328 155.173 109.981 155.457 110.044 155.658 110.106 156.331 110.308 157.601 111.237 158.253 111.577 161.596 113.36 164.864 115.24 168.076 117.265L168.076 117.265Z" fill="#000000" fill-rule="nonzero" fill-opacity="1" transform="matrix(1.00912 0 0 1 28.4875 -457.113)"/></g></g></g></g></svg>