<svg width="736" height="190" xmlns="http://www.w3.org/2000/svg" xmlns:xlink="http://www.w3.org/1999/xlink" xml:space="preserve" overflow="hidden"><g transform="translate(-254 230)"><g><g><g><path d="M249.804 201.361C245.243 201.361 241.261 200.747 237.857 199.526 234.453 198.3 231.803 196.353 229.921 193.675 228.037 191.004 227.089 187.482 227.089 183.116L244.273 183.116C244.357 184.664 244.915 185.906 245.94 186.833 246.966 187.761 248.723 188.229 251.199 188.229 253.201 188.229 254.707 187.963 255.719 187.426 256.73 186.889 257.295 186.143 257.406 185.188 257.545 184.4 257.406 183.66 257.001 182.97 256.59 182.28 255.656 181.526 254.191 180.71 252.726 179.894 250.46 178.911 247.391 177.753 244.713 176.77 242.146 175.43 239.685 173.742 237.222 172.055 235.312 169.859 233.965 167.152 232.62 164.446 232.223 161.099 232.781 157.102 233.29 153.783 234.607 151.063 236.748 148.95 238.889 146.837 241.644 145.294 245.027 144.325 248.409 143.356 252.189 142.91 256.388 142.994 260.524 143.05 264.248 143.662 267.554 144.827 270.86 145.999 273.503 147.827 275.469 150.316 277.436 152.806 278.455 156.07 278.51 160.094L261.409 160.094C261.297 158.63 260.657 157.507 259.492 156.719 258.32 155.931 256.855 155.533 255.077 155.533 253.779 155.533 252.629 155.742 251.617 156.168 250.606 156.593 250.027 157.423 249.888 158.658 249.832 159.223 249.992 159.787 250.376 160.345 250.753 160.91 251.666 161.566 253.103 162.312 254.54 163.058 256.793 163.993 259.861 165.123 263.522 166.448 266.564 168.031 268.983 169.872 271.404 171.713 273.119 173.931 274.138 176.525 275.149 179.113 275.379 182.182 274.814 185.732 274.221 189.561 272.784 192.615 270.504 194.896 268.224 197.177 265.308 198.823 261.766 199.834 258.222 200.845 254.233 201.354 249.818 201.354Z" fill="#FFFFFF" fill-rule="nonzero" fill-opacity="1" transform="matrix(1.00245 0 0 1 225.528 -268.315)"/><path d="M290.597 200.684 294.816 180.961 283.755 143.844 301.491 143.844 306.094 165.465 319.902 143.844 338.866 143.844 312.05 180.961 307.74 200.684 290.597 200.684Z" fill="#FFFFFF" fill-rule="nonzero" fill-opacity="1" transform="matrix(1.00245 0 0 1 225.528 -268.315)"/><path d="M354.698 201.361C350.136 201.361 346.153 200.747 342.75 199.526 339.347 198.3 336.697 196.353 334.814 193.675 332.93 191.004 331.982 187.482 331.982 183.116L349.167 183.116C349.251 184.664 349.809 185.906 350.834 186.833 351.859 187.761 353.617 188.229 356.092 188.229 358.093 188.229 359.6 187.963 360.612 187.426 361.623 186.889 362.188 186.143 362.299 185.188 362.439 184.4 362.299 183.66 361.895 182.97 361.483 182.28 360.549 181.526 359.084 180.71 357.619 179.894 355.352 178.911 352.284 177.753 349.606 176.77 347.04 175.43 344.577 173.742 342.116 172.055 340.205 169.859 338.859 167.152 337.513 164.446 337.115 161.099 337.673 157.102 338.182 153.783 339.5 151.063 341.642 148.95 343.783 146.837 346.538 145.294 349.919 144.325 353.302 143.356 357.082 142.91 361.281 142.994 365.417 143.05 369.141 143.662 372.447 144.827 375.752 145.999 378.395 147.827 380.363 150.316 382.329 152.806 383.347 156.07 383.403 160.094L366.302 160.094C366.191 158.63 365.549 157.507 364.384 156.719 363.213 155.931 361.748 155.533 359.97 155.533 358.672 155.533 357.521 155.742 356.51 156.168 355.499 156.593 354.92 157.423 354.78 158.658 354.725 159.223 354.885 159.787 355.269 160.345 355.646 160.91 356.559 161.566 357.996 162.312 359.433 163.058 361.685 163.993 364.754 165.123 368.416 166.448 371.456 168.031 373.877 169.872 376.296 171.713 378.012 173.931 379.03 176.525 380.041 179.113 380.272 182.182 379.707 185.732 379.114 189.561 377.678 192.615 375.397 194.896 373.116 197.177 370.201 198.823 366.658 199.834 363.115 200.845 359.126 201.354 354.711 201.354Z" fill="#FFFFFF" fill-rule="nonzero" fill-opacity="1" transform="matrix(1.00245 0 0 1 225.528 -268.315)"/><path d="M393.335 200.684 402.498 157.612 388.481 157.612 391.354 143.844 436.157 143.844 433.199 157.612 419.181 157.612 409.934 200.684 393.342 200.684Z" fill="#FFFFFF" fill-rule="nonzero" fill-opacity="1" transform="matrix(1.00245 0 0 1 225.528 -268.315)"/><path d="M430.326 200.684 442.447 143.844 482.731 143.844 479.774 157.528 456.082 157.528 454.52 165.297 475.464 165.297 472.59 178.472 451.772 178.472 449.959 187.001 473.566 187.001 470.61 200.684 430.326 200.684Z" fill="#FFFFFF" fill-rule="nonzero" fill-opacity="1" transform="matrix(1.00245 0 0 1 225.528 -268.315)"/><path d="M480.576 200.684 492.697 143.844 511.36 143.844 518.536 164.872 534.877 143.844 554.509 143.844 542.389 200.684 525.965 200.684 533.65 164.879 520.266 182.189 510.384 182.189 504.344 164.879 496.658 200.684 480.569 200.684Z" fill="#FFFFFF" fill-rule="nonzero" fill-opacity="1" transform="matrix(1.00245 0 0 1 225.528 -268.315)"/><path d="M577.909 201.361C573.347 201.361 569.365 200.747 565.961 199.526 562.558 198.307 559.908 196.353 558.025 193.675 556.141 191.004 555.193 187.482 555.193 183.116L572.378 183.116C572.462 184.664 573.02 185.906 574.045 186.833 575.07 187.761 576.828 188.229 579.303 188.229 581.305 188.229 582.812 187.963 583.823 187.426 584.834 186.889 585.399 186.143 585.511 185.188 585.649 184.4 585.511 183.66 585.105 182.97 584.701 182.28 583.76 181.526 582.296 180.71 580.83 179.894 578.564 178.911 575.495 177.753 572.824 176.77 570.251 175.43 567.789 173.742 565.327 172.055 563.416 169.859 562.07 167.152 560.724 164.446 560.327 161.099 560.885 157.102 561.394 153.783 562.711 151.063 564.853 148.95 566.994 146.837 569.749 145.294 573.131 144.325 576.514 143.356 580.293 142.91 584.493 142.994 588.628 143.05 592.352 143.662 595.658 144.827 598.964 145.999 601.607 147.827 603.574 150.316 605.54 152.806 606.559 156.07 606.614 160.094L589.513 160.094C589.402 158.63 588.761 157.507 587.596 156.719 586.431 155.931 584.96 155.533 583.181 155.533 581.884 155.533 580.733 155.742 579.721 156.168 578.71 156.593 578.131 157.423 577.992 158.658 577.937 159.223 578.097 159.787 578.481 160.345 578.857 160.91 579.77 161.566 581.208 162.312 582.644 163.058 584.897 163.993 587.965 165.123 591.627 166.448 594.668 168.031 597.088 169.872 599.508 171.713 601.223 173.931 602.242 176.525 603.253 179.113 603.483 182.182 602.918 185.732 602.325 189.561 600.889 192.615 598.608 194.896 596.328 197.177 593.412 198.823 589.87 199.834 586.326 200.845 582.338 201.354 577.923 201.354Z" fill="#FFFFFF" fill-rule="nonzero" fill-opacity="1" transform="matrix(1.00245 0 0 1 225.528 -268.315)"/><path d="M239.239 129.024 270.909 72.1837 288.309 72.1837 296.079 129.024 279.145 129.024 278.427 120.369 261.242 120.369 256.807 129.024 239.239 129.024ZM267.442 107.488 277.743 107.488 276.516 88.5732 267.435 107.488Z" fill="#FFFFFF" fill-rule="nonzero" fill-opacity="1" transform="matrix(1.00245 0 0 1 225.528 -268.315)"/><path d="M327.532 129.868C322.015 129.868 317.238 128.675 313.194 126.297 309.155 123.918 306.212 120.439 304.371 115.863 302.53 111.289 302.139 105.695 303.206 99.0764 304.134 93.4482 305.996 88.5522 308.779 84.4025 311.568 80.2529 315.202 77.0308 319.694 74.7571 324.184 72.4765 329.471 71.3398 335.553 71.3398 338.538 71.3398 341.467 71.7443 344.334 72.5463 347.199 73.3483 349.795 74.5898 352.102 76.2636 354.411 77.9374 356.239 80.0925 357.591 82.7218 358.945 85.3511 359.579 88.4825 359.489 92.1161L342.387 92.1161C342.276 90.5399 341.913 89.2427 341.313 88.2314 340.707 87.2202 339.793 86.46 338.566 85.9508 337.338 85.4417 335.727 85.1907 333.733 85.1907 330.859 85.1907 328.474 85.9508 326.577 87.4712 324.68 88.9916 323.194 90.9305 322.12 93.2808 321.053 95.6311 320.308 98.0582 319.881 100.562 319.484 103.177 319.484 105.674 319.881 108.039 320.273 110.402 321.221 112.335 322.713 113.82 324.205 115.312 326.388 116.059 329.255 116.059 331.222 116.059 332.916 115.821 334.325 115.34 335.734 114.859 336.899 114.119 337.833 113.122 338.761 112.125 339.452 110.877 339.905 109.384L329.262 109.384 331.417 96.8447 359.16 96.8447 357.431 104.74C356.671 108.261 355.604 111.539 354.223 114.581 352.842 117.621 351.014 120.285 348.735 122.58 346.454 124.874 343.58 126.659 340.121 127.943 336.662 129.226 332.463 129.861 327.539 129.861Z" fill="#FFFFFF" fill-rule="nonzero" fill-opacity="1" transform="matrix(1.00245 0 0 1 225.528 -268.315)"/><path d="M361.19 129.024 373.312 72.1837 413.595 72.1837 410.637 85.8671 386.946 85.8671 385.384 93.6364 406.327 93.6364 403.455 106.811 382.637 106.811 380.823 115.34 404.431 115.34 401.473 129.024 361.19 129.024Z" fill="#FFFFFF" fill-rule="nonzero" fill-opacity="1" transform="matrix(1.00245 0 0 1 225.528 -268.315)"/><path d="M411.44 129.024 423.561 72.1837 439.567 72.1837 453.292 104.363 460.05 72.1837 475.631 72.1837 463.51 129.024 447.504 129.024 433.82 96.5935 426.937 129.024 411.44 129.024Z" fill="#FFFFFF" fill-rule="nonzero" fill-opacity="1" transform="matrix(1.00245 0 0 1 225.528 -268.315)"/><path d="M484.07 129.024 493.234 85.9508 479.216 85.9508 482.089 72.1837 526.892 72.1837 523.934 85.9508 509.916 85.9508 500.669 129.024 484.077 129.024Z" fill="#FFFFFF" fill-rule="nonzero" fill-opacity="1" transform="matrix(1.00245 0 0 1 225.528 -268.315)"/><path d="M521.062 129.024 533.182 72.1837 549.774 72.1837 537.737 129.024 521.055 129.024Z" fill="#FFFFFF" fill-rule="nonzero" fill-opacity="1" transform="matrix(1.00245 0 0 1 225.528 -268.315)"/><path d="M577.351 129.784C571.918 129.784 567.189 128.64 563.165 126.346 559.141 124.051 556.183 120.64 554.301 116.108 552.41 111.574 551.992 105.932 553.031 99.174 554.014 92.8693 556.01 87.6665 559.008 83.5726 562.007 79.4787 565.746 76.431 570.223 74.4294 574.701 72.4277 579.638 71.4304 585.044 71.4304 590.449 71.4304 594.689 72.365 598.364 74.2411 602.04 76.1102 604.808 78.6837 606.684 81.9476 608.554 85.2115 609.376 88.9707 609.154 93.225L591.969 93.225C591.969 91.6767 591.641 90.3027 590.979 89.1102 590.316 87.9176 589.375 86.976 588.147 86.2996 586.919 85.6231 585.448 85.2883 583.732 85.2883 580.914 85.2883 578.544 85.9439 576.618 87.255 574.694 88.5662 573.159 90.3725 572.036 92.681 570.906 94.9895 570.104 97.6467 569.63 100.66 569.177 103.533 569.163 106.12 569.588 108.429 570.014 110.738 570.955 112.557 572.42 113.897 573.884 115.235 575.949 115.905 578.627 115.905 581.5 115.905 583.928 115.153 585.908 113.645 587.895 112.139 589.165 109.81 589.73 106.657L606.831 106.657C605.283 114.622 601.97 120.474 596.886 124.205 591.801 127.936 585.294 129.798 577.358 129.798Z" fill="#FFFFFF" fill-rule="nonzero" fill-opacity="1" transform="matrix(1.00245 0 0 1 225.528 -268.315)"/><path d="M621.407 201.459 633.444 144.619 638.891 144.619 627.705 196.855 655.574 196.855 654.604 201.459 621.414 201.459Z" fill="#FFFFFF" fill-rule="nonzero" fill-opacity="1" transform="matrix(1.00245 0 0 1 225.528 -268.315)"/><path d="M657.464 201.459 691.289 144.619 697.071 144.619 706.319 201.459 700.872 201.459 698.633 183.807 673.463 183.807 663.329 201.459 657.457 201.459ZM676.134 179.162 697.755 179.162 693.193 150.066 676.134 179.162Z" fill="#FFFFFF" fill-rule="nonzero" fill-opacity="1" transform="matrix(1.00245 0 0 1 225.528 -268.315)"/><path d="M714.472 201.459 726.509 144.619 743.359 144.619C747.16 144.619 750.34 145.28 752.9 146.606 755.459 147.932 757.28 149.8 758.347 152.221 759.414 154.64 759.589 157.5 758.856 160.792 758.291 163.351 756.958 165.59 754.845 167.508 752.732 169.426 750.173 170.674 747.16 171.267 749.524 171.832 751.574 172.801 753.304 174.183 755.034 175.563 756.269 177.335 757 179.504 757.733 181.673 757.775 184.26 757.126 187.273 756.589 189.916 755.41 192.322 753.577 194.471 751.742 196.619 749.224 198.327 746.016 199.582 742.808 200.838 738.839 201.459 734.111 201.459L714.479 201.459ZM720.763 196.855 734.613 196.855C739.203 196.855 743.038 195.977 746.121 194.219 749.204 192.462 751.107 189.86 751.84 186.429 752.655 182.405 751.931 179.336 749.664 177.223 747.397 175.11 744.001 174.057 739.467 174.057L725.617 174.057 720.763 196.862ZM726.677 169.37 738.965 169.37C743.247 169.37 746.623 168.526 749.099 166.838 751.574 165.15 753.123 162.856 753.743 159.955 754.42 156.607 753.827 153.978 751.972 152.081 750.117 150.183 746.916 149.228 742.39 149.228L730.987 149.228 726.677 169.37Z" fill="#FFFFFF" fill-rule="nonzero" fill-opacity="1" transform="matrix(1.00245 0 0 1 225.528 -268.315)"/><path d="M131.911 44.2587C131.953 44.6004 131.618 44.8236 131.402 45.0259 130.363 45.9952 129.01 46.895 127.915 47.8434 113.939 59.9578 101.231 76.3472 92.3741 92.6112 85.9717 104.377 80.8806 116.958 78.7185 130.272L78.4465 130.454C72.1279 113.367 66.7507 95.4359 65.5023 77.1144 65.3 74.1085 65.1676 70.9352 65.2233 67.9293 65.2373 67.1761 65.307 64.505 65.6627 64.0168 82.3172 49.8799 104.956 43.1079 126.715 43.9169 128.403 43.9797 130.23 44.4191 131.904 44.2657Z" fill="#FFFFFF" fill-rule="nonzero" fill-opacity="1" transform="matrix(1.00245 0 0 1 225.528 -268.315)"/><path d="M169.656 57.468C177.914 62.88 187.657 71.27 193.187 79.5345 193.341 79.7577 194.226 80.9782 194.066 81.1246 188.633 80.3366 183.13 79.8414 177.641 79.7507 154.019 79.3531 124.037 84.1166 102.989 95.0523L95.9868 99.0416C97.0259 96.9213 98.1279 94.7872 99.3274 92.7438 109.671 75.05 123.605 58.821 139.29 45.7442 139.994 45.4373 145.595 46.7764 146.739 47.0624 154.78 49.0989 162.731 52.9138 169.656 57.461Z" fill="#FFFFFF" fill-rule="nonzero" fill-opacity="1" transform="matrix(1.00245 0 0 1 225.528 -268.315)"/><path d="M89.173 162.884C81.843 160.464 74.6525 157.514 67.7411 154.075 56.9519 148.712 44.9003 141.166 36.05 132.929 35.485 132.406 32.5141 129.533 32.3815 129.094 32.1443 128.312 32.4025 126.192 32.5001 125.265 33.2184 118.221 35.1364 110.849 37.5425 104.203 42.2013 91.3559 49.5591 79.5415 59.3022 70.0286 59.2394 86.6901 62.4894 103.087 67.6503 118.842 72.8113 134.596 79.9251 149.298 89.1869 162.877L89.1869 162.877Z" fill="#FFFFFF" fill-rule="nonzero" fill-opacity="1" transform="matrix(1.00245 0 0 1 225.528 -268.315)"/><path d="M152.688 165.785C151.327 169.558 150.066 173.373 148.558 177.09 143.153 190.488 135.398 204.527 126.458 215.874 124.114 218.845 121.583 221.67 118.849 224.292 115.235 224.397 111.588 224.257 108.004 223.79 100.994 222.884 92.939 220.624 86.3972 217.967 77.519 214.361 68.8151 208.865 62.0919 202.052 68.4454 201.564 74.7571 200.545 80.9642 199.122 104.447 193.731 126.967 182.865 147.108 169.879L152.681 165.792Z" fill="#FFFFFF" fill-rule="nonzero" fill-opacity="1" transform="matrix(1.00245 0 0 1 225.528 -268.315)"/><path d="M199.129 88.0012C210.163 104.802 214.724 125.941 211.265 145.81 204.179 137.323 195.851 129.728 187.12 122.949 170.947 110.402 152.541 99.4321 133.362 92.2137L129.875 91.1049C129.875 90.8677 133.934 90.1423 134.436 90.0517 145.343 87.9874 156.663 86.5785 167.745 86.0694 178.185 85.5951 188.898 85.8113 199.122 87.9943Z" fill="#FFFFFF" fill-rule="nonzero" fill-opacity="1" transform="matrix(1.00245 0 0 1 225.528 -268.315)"/><path d="M32.4652 138.306C32.5141 138.6 32.8976 138.969 33.1138 139.151 52.4326 155.589 77.6933 167.87 102.11 174.914L117.941 179.009C117 179.497 116.024 179.957 115.048 180.368 104.537 184.853 93.6714 189.156 82.5962 192.05 73.9203 194.317 64.763 196.005 55.7871 195.216 40.8622 180.55 33.4346 159.125 32.1165 138.383L32.4513 138.299Z" fill="#FFFFFF" fill-rule="nonzero" fill-opacity="1" transform="matrix(1.00245 0 0 1 225.528 -268.315)"/><path d="M181.393 203.098C180.835 203.934 176.798 206.808 175.731 207.568 161.573 217.632 144.374 223.762 126.981 224.669 126.862 224.523 127.525 223.741 127.664 223.56 132.309 217.597 136.57 212.575 140.741 206.11 153.503 186.324 161.81 163.735 164.955 140.343 165.199 140.357 165.22 140.608 165.297 140.762 165.988 142.086 166.664 143.879 167.25 145.294 174.629 163.233 180.18 182.691 181.778 202.094 181.798 202.484 181.603 202.783 181.4 203.091L181.4 203.091Z" fill="#FFFFFF" fill-rule="nonzero" fill-opacity="1" transform="matrix(1.00245 0 0 1 225.528 -268.315)"/><path d="M168.972 117.886C182.294 126.311 198.459 138.558 207.924 151.292 208.349 151.864 209.946 153.95 210.037 154.48 210.107 154.857 209.925 155.833 209.855 156.272 207.672 169.537 200.022 182.412 191.841 192.839 190.6 194.415 189.016 195.977 187.852 197.539 187.705 197.735 187.608 197.971 187.587 198.216 187.266 198.139 187.245 197.77 187.196 197.504 186.91 195.935 186.931 193.982 186.722 192.35 183.053 164.732 172.355 137.323 157.932 113.68 157.618 113.164 156.189 111.247 156.091 110.911 155.994 110.563 156.279 110.626 156.482 110.689 157.158 110.891 158.434 111.826 159.09 112.167 162.451 113.96 165.736 115.849 168.965 117.886L168.965 117.886Z" fill="#FFFFFF" fill-rule="nonzero" fill-opacity="1" transform="matrix(1.00245 0 0 1 225.528 -268.315)"/></g></g></g></g></svg>