<svg width="1067" height="151" xmlns="http://www.w3.org/2000/svg" xmlns:xlink="http://www.w3.org/1999/xlink" xml:space="preserve" overflow="hidden"><g transform="translate(-157 192)"><g><g><g><path d="M369.598 133.056C366.856 146.655 356.353 147.346 354.271 147.346 348.34 147.346 344.803 143.919 344.803 138.189 344.803 136.882 344.995 135.101 345.327 133.317L351.823 100.947 351.851 100.822 344.176 100.822 337.555 134.014 337.467 134.488C337.182 135.988 336.915 137.41 336.915 139.255 336.915 148.171 342.771 154.156 351.502 154.156 357.885 154.156 363.016 152.061 366.761 147.924L365.762 153.392 365.741 153.52 373.307 153.52 383.761 100.947 383.778 100.822 375.997 100.822 369.598 133.056Z" fill="#FFFFFF" fill-rule="nonzero" fill-opacity="1" transform="matrix(1 0 0 1.00898 86.0235 -233.217)"/><path d="M421.918 100.186C415.989 100.186 410.734 102.61 407.427 106.868L408.613 100.951 408.637 100.826 401.071 100.826 390.614 153.395 390.589 153.524 398.272 153.524 404.674 121.283C406.308 113.006 412.664 107.004 419.789 107.004 422.849 107.004 425.26 108.209 427.155 110.684L427.225 110.778 433.458 105.196 433.394 105.118C430.514 101.794 426.756 100.186 421.918 100.186Z" fill="#FFFFFF" fill-rule="nonzero" fill-opacity="1" transform="matrix(1 0 0 1.00898 86.0235 -233.217)"/><path d="M295.019 107.512 294.999 107.64 321.184 107.64 286.319 147.061 286.302 147.082 284.989 153.524 322.152 153.524 323.472 146.706 295.693 146.706 330.666 107.285 330.683 107.261 331.993 100.826 296.323 100.826Z" fill="#FFFFFF" fill-rule="nonzero" fill-opacity="1" transform="matrix(1 0 0 1.00898 86.0235 -233.217)"/><path d="M434.432 153.395 434.407 153.524 442.079 153.524 452.55 100.826 445.005 100.826Z" fill="#FFFFFF" fill-rule="nonzero" fill-opacity="1" transform="matrix(1 0 0 1.00898 86.0235 -233.217)"/><path d="M538.495 100.189C532.182 100.189 527.251 102.122 523.465 106.113L529.418 76.7701 521.742 76.7701 506.324 153.534 513.999 153.534 520.401 121.289C523.147 107.698 533.741 107.01 535.838 107.01 541.703 107.01 545.211 110.433 545.211 116.164 545.211 117.464 545.013 119.238 544.678 121.039L538.163 153.537 545.836 153.537 552.566 120.331C552.89 118.568 553.102 117.075 553.102 115.094 553.095 106.178 547.219 100.189 538.495 100.189Z" fill="#FFFFFF" fill-rule="nonzero" fill-opacity="1" transform="matrix(1 0 0 1.00898 86.0235 -233.217)"/><path d="M487.612 100.186C473.69 100.186 463.914 109.993 460.791 127.095 460.23 129.959 460.032 133.161 460.032 135.209 460.032 146.895 467.129 154.156 478.556 154.156 485.202 154.156 491.268 151.611 496.096 146.787L496.167 146.716 491.738 141.316 491.66 141.221 491.579 141.313C487.506 145.599 483.857 147.349 478.983 147.349 473.535 147.349 467.711 144.106 467.711 135 467.711 132.149 468.047 129.793 468.551 127.139 469.377 122.671 471.226 116.428 475.341 112.085 478.609 108.713 482.488 107.007 486.871 107.007 491.448 107.007 494.307 108.635 497.099 112.813L497.166 112.918 502.798 108.158 502.876 108.09 502.816 108.006C498.969 102.593 494.279 100.186 487.612 100.186Z" fill="#FFFFFF" fill-rule="nonzero" fill-opacity="1" transform="matrix(1 0 0 1.00898 86.0235 -233.217)"/><path d="M447.853 86.3641 455.543 86.3641 457.456 76.767 449.791 76.767Z" fill="#FFFFFF" fill-rule="nonzero" fill-opacity="1" transform="matrix(1 0 0 1.00898 86.0235 -233.217)"/><path d="M373.219 86.3641 380.913 86.3641 382.815 76.767 375.16 76.767Z" fill="#FFFFFF" fill-rule="nonzero" fill-opacity="1" transform="matrix(1 0 0 1.00898 86.0235 -233.217)"/><path d="M352.751 86.3641 360.444 86.3641 362.353 76.767 354.695 76.767Z" fill="#FFFFFF" fill-rule="nonzero" fill-opacity="1" transform="matrix(1 0 0 1.00898 86.0235 -233.217)"/><path d="M250.202 106.513 232.934 106.513 238.997 76.767 92.1966 76.767 76.7804 153.53 135.311 153.53 139.146 134.343 104.587 134.343 106.682 123.788 141.229 123.788 144.708 106.513 110.152 106.513 112.244 95.9545 167.017 95.9545 155.453 153.53 179.444 153.53 191.008 95.9545 211.15 95.9545 199.586 153.53 223.581 153.53 229.501 123.788 246.77 123.788 240.846 153.53 264.837 153.53 280.26 76.767 256.268 76.767Z" fill="#FFFFFF" fill-rule="nonzero" fill-opacity="1" transform="matrix(1 0 0 1.00898 86.0235 -233.217)"/><path d="M164.879 132.904C161.868 132.904 159.24 132.499 156.993 131.693 154.746 130.884 152.997 129.599 151.755 127.831 150.511 126.068 149.886 123.744 149.886 120.862L161.228 120.862C161.283 121.884 161.651 122.704 162.328 123.316 163.005 123.928 164.165 124.237 165.799 124.237 167.121 124.237 168.115 124.061 168.782 123.707 169.449 123.353 169.822 122.86 169.896 122.229 169.988 121.71 169.896 121.221 169.629 120.766 169.357 120.31 168.741 119.813 167.774 119.274 166.807 118.736 165.311 118.087 163.285 117.322 161.518 116.674 159.824 115.79 158.199 114.675 156.574 113.562 155.313 112.112 154.424 110.326 153.536 108.54 153.274 106.33 153.642 103.692 153.978 101.501 154.848 99.706 156.261 98.3113 157.674 96.9166 159.493 95.8989 161.726 95.2589 163.958 94.6193 166.453 94.3248 169.224 94.3801 171.954 94.417 174.412 94.8216 176.594 95.5906 178.776 96.3638 180.52 97.5703 181.818 99.2134 183.116 100.857 183.789 103.011 183.825 105.667L172.538 105.667C172.464 104.701 172.041 103.96 171.272 103.439 170.499 102.919 169.533 102.656 168.359 102.656 167.502 102.656 166.743 102.795 166.075 103.075 165.408 103.356 165.026 103.904 164.934 104.719 164.897 105.092 165.003 105.464 165.256 105.833 165.504 106.205 166.107 106.638 167.056 107.131 168.004 107.623 169.491 108.24 171.516 108.986 173.933 109.861 175.94 110.906 177.537 112.121 179.135 113.336 180.267 114.8 180.939 116.512 181.607 118.22 181.758 120.246 181.386 122.588 180.994 125.116 180.046 127.132 178.54 128.637 177.036 130.142 175.111 131.229 172.773 131.896 170.434 132.564 167.802 132.9 164.888 132.9Z" fill="#FFFFFF" fill-rule="nonzero" fill-opacity="1" transform="matrix(1 0 0 1.00117 716.592 -205.596)"/><path d="M191.803 132.458 194.588 119.44 187.287 94.9414 198.993 94.9414 202.031 109.212 211.145 94.9414 223.661 94.9414 205.962 119.44 203.117 132.458 191.803 132.458Z" fill="#FFFFFF" fill-rule="nonzero" fill-opacity="1" transform="matrix(1 0 0 1.00117 716.592 -205.596)"/><path d="M234.111 132.904C231.1 132.904 228.472 132.499 226.226 131.693 223.979 130.884 222.23 129.599 220.988 127.831 219.744 126.068 219.118 123.744 219.118 120.862L230.461 120.862C230.516 121.884 230.884 122.704 231.561 123.316 232.237 123.928 233.398 124.237 235.032 124.237 236.352 124.237 237.347 124.061 238.015 123.707 238.682 123.353 239.055 122.86 239.128 122.229 239.221 121.71 239.128 121.221 238.861 120.766 238.59 120.31 237.973 119.813 237.006 119.274 236.04 118.736 234.544 118.087 232.518 117.322 230.751 116.674 229.057 115.79 227.431 114.675 225.807 113.562 224.546 112.112 223.657 110.326 222.769 108.54 222.506 106.33 222.874 103.692 223.21 101.501 224.081 99.706 225.494 98.3113 226.907 96.9166 228.725 95.8989 230.958 95.2589 233.19 94.6193 235.685 94.3248 238.456 94.3801 241.187 94.417 243.645 94.8216 245.827 95.5906 248.008 96.3638 249.753 97.5703 251.051 99.2134 252.349 100.857 253.021 103.011 253.058 105.667L241.771 105.667C241.697 104.701 241.273 103.96 240.504 103.439 239.732 102.919 238.765 102.656 237.591 102.656 236.735 102.656 235.975 102.795 235.308 103.075 234.64 103.356 234.258 103.904 234.166 104.719 234.129 105.092 234.235 105.464 234.488 105.833 234.737 106.205 235.34 106.638 236.288 107.131 237.237 107.623 238.723 108.24 240.749 108.986 243.166 109.861 245.172 110.906 246.77 112.121 248.367 113.336 249.5 114.8 250.171 116.512 250.839 118.22 250.991 120.246 250.618 122.588 250.227 125.116 249.279 127.132 247.774 128.637 246.268 130.142 244.344 131.229 242.005 131.896 239.667 132.564 237.034 132.9 234.12 132.9Z" fill="#FFFFFF" fill-rule="nonzero" fill-opacity="1" transform="matrix(1 0 0 1.00117 716.592 -205.596)"/><path d="M259.613 132.458 265.661 104.029 256.409 104.029 258.305 94.9414 287.877 94.9414 285.925 104.029 276.672 104.029 270.569 132.458 259.618 132.458Z" fill="#FFFFFF" fill-rule="nonzero" fill-opacity="1" transform="matrix(1 0 0 1.00117 716.592 -205.596)"/><path d="M284.029 132.458 292.029 94.9414 318.617 94.9414 316.666 103.973 301.028 103.973 299.997 109.101 313.821 109.101 311.924 117.797 298.184 117.797 296.987 123.426 312.568 123.426 310.617 132.458 284.029 132.458Z" fill="#FFFFFF" fill-rule="nonzero" fill-opacity="1" transform="matrix(1 0 0 1.00117 716.592 -205.596)"/><path d="M317.195 132.458 325.195 94.9414 337.513 94.9414 342.25 108.82 353.035 94.9414 365.993 94.9414 357.992 132.458 347.153 132.458 352.225 108.825 343.391 120.25 336.869 120.25 332.882 108.825 327.81 132.458 317.19 132.458Z" fill="#FFFFFF" fill-rule="nonzero" fill-opacity="1" transform="matrix(1 0 0 1.00117 716.592 -205.596)"/><path d="M381.439 132.904C378.427 132.904 375.798 132.499 373.551 131.693 371.304 130.888 369.558 129.599 368.314 127.831 367.07 126.068 366.443 123.744 366.443 120.862L377.786 120.862C377.842 121.884 378.211 122.704 378.888 123.316 379.564 123.928 380.723 124.237 382.357 124.237 383.678 124.237 384.674 124.061 385.34 123.707 386.01 123.353 386.382 122.86 386.456 122.229 386.545 121.71 386.456 121.221 386.187 120.766 385.921 120.31 385.298 119.813 384.334 119.274 383.367 118.736 381.871 118.087 379.844 117.322 378.08 116.674 376.382 115.79 374.759 114.675 373.133 113.562 371.871 112.112 370.982 110.326 370.096 108.54 369.834 106.33 370.202 103.692 370.536 101.501 371.407 99.706 372.821 98.3113 374.231 96.9166 376.053 95.8989 378.285 95.2589 380.518 94.6193 383.012 94.3248 385.783 94.3801 388.512 94.417 390.971 94.8216 393.154 95.5906 395.336 96.3638 397.08 97.5703 398.377 99.2134 399.674 100.857 400.347 103.011 400.382 105.667L389.096 105.667C389.022 104.701 388.6 103.96 387.831 103.439 387.062 102.919 386.091 102.656 384.919 102.656 384.061 102.656 383.303 102.795 382.633 103.075 381.967 103.356 381.584 103.904 381.492 104.719 381.457 105.092 381.563 105.464 381.814 105.833 382.062 106.205 382.665 106.638 383.615 107.131 384.564 107.623 386.049 108.24 388.076 108.986 390.492 109.861 392.498 110.906 394.096 112.121 395.694 113.336 396.825 114.8 397.498 116.512 398.164 118.22 398.316 120.246 397.944 122.588 397.555 125.116 396.605 127.132 395.099 128.637 393.593 130.142 391.669 131.229 389.334 131.896 386.992 132.564 384.362 132.9 381.446 132.9Z" fill="#FFFFFF" fill-rule="nonzero" fill-opacity="1" transform="matrix(1 0 0 1.00117 716.592 -205.596)"/><path d="M157.905 85.16 178.808 47.6433 190.293 47.6433 195.421 85.16 184.244 85.16 183.77 79.4471 172.428 79.4471 169.5 85.16 157.905 85.16ZM176.52 70.9449 183.319 70.9449 182.509 58.4612 176.515 70.9449Z" fill="#FFFFFF" fill-rule="nonzero" fill-opacity="1" transform="matrix(1 0 0 1.00117 716.592 -205.596)"/><path d="M216.181 85.7166C212.54 85.7166 209.387 84.9293 206.717 83.3599 204.052 81.7901 202.11 79.4932 200.894 76.4731 199.679 73.4537 199.421 69.7617 200.125 65.3933 200.738 61.6787 201.966 58.447 203.803 55.7083 205.645 52.9695 208.043 50.8427 211.008 49.342 213.971 47.8367 217.461 47.0866 221.475 47.0866 223.446 47.0866 225.379 47.3534 227.271 47.8828 229.162 48.4122 230.875 49.2315 232.398 50.3363 233.922 51.4412 235.129 52.8635 236.021 54.5988 236.914 56.3344 237.333 58.4013 237.274 60.7995L225.986 60.7995C225.913 59.7592 225.673 58.9031 225.277 58.2355 224.877 57.5679 224.274 57.0661 223.464 56.7302 222.654 56.3943 221.59 56.2284 220.274 56.2284 218.377 56.2284 216.803 56.7302 215.551 57.7337 214.299 58.7372 213.318 60.0168 212.609 61.5681 211.905 63.1195 211.413 64.7215 211.131 66.3742 210.869 68.1002 210.869 69.7479 211.131 71.3088 211.39 72.8687 212.015 74.1443 213.001 75.1248 213.986 76.1095 215.426 76.6024 217.318 76.6024 218.616 76.6024 219.735 76.4455 220.665 76.128 221.595 75.8105 222.364 75.3222 222.98 74.6641 223.592 74.0061 224.048 73.1823 224.347 72.1968L217.323 72.1968 218.746 63.9203 237.057 63.9203 235.915 69.1313C235.414 71.4555 234.709 73.6192 233.798 75.6266 232.887 77.6336 231.68 79.3919 230.175 80.9064 228.67 82.4205 226.773 83.5991 224.49 84.4463 222.207 85.2928 219.436 85.712 216.186 85.712Z" fill="#FFFFFF" fill-rule="nonzero" fill-opacity="1" transform="matrix(1 0 0 1.00117 716.592 -205.596)"/><path d="M238.396 85.16 246.397 47.6433 272.985 47.6433 271.033 56.6749 255.396 56.6749 254.365 61.8031 268.189 61.8031 266.292 70.4984 252.552 70.4984 251.355 76.128 266.937 76.128 264.985 85.16 238.396 85.16Z" fill="#FFFFFF" fill-rule="nonzero" fill-opacity="1" transform="matrix(1 0 0 1.00117 716.592 -205.596)"/><path d="M271.563 85.16 279.563 47.6433 290.127 47.6433 299.187 68.8829 303.647 47.6433 313.931 47.6433 305.931 85.16 295.366 85.16 286.334 63.7548 281.791 85.16 271.563 85.16Z" fill="#FFFFFF" fill-rule="nonzero" fill-opacity="1" transform="matrix(1 0 0 1.00117 716.592 -205.596)"/><path d="M319.501 85.16 325.55 56.7302 316.297 56.7302 318.193 47.6433 347.765 47.6433 345.813 56.7302 336.56 56.7302 330.457 85.16 319.506 85.16Z" fill="#FFFFFF" fill-rule="nonzero" fill-opacity="1" transform="matrix(1 0 0 1.00117 716.592 -205.596)"/><path d="M343.917 85.16 351.917 47.6433 362.867 47.6433 354.923 85.16 343.912 85.16Z" fill="#FFFFFF" fill-rule="nonzero" fill-opacity="1" transform="matrix(1 0 0 1.00117 716.592 -205.596)"/><path d="M381.07 85.6614C377.484 85.6614 374.363 84.9062 371.705 83.3921 369.051 81.8776 367.098 79.6264 365.855 76.6347 364.607 73.6422 364.331 69.9187 365.018 65.4578 365.667 61.2967 366.985 57.8627 368.962 55.1604 370.943 52.4585 373.409 50.4469 376.365 49.1255 379.32 47.8045 382.58 47.1461 386.148 47.1461 389.713 47.1461 392.512 47.763 394.94 49.0015 397.363 50.235 399.192 51.9337 400.428 54.0878 401.665 56.2423 402.207 58.7234 402.058 61.5313L390.719 61.5313C390.719 60.5093 390.5 59.6026 390.064 58.8155 389.628 58.0282 389.004 57.407 388.196 56.9602 387.385 56.5137 386.414 56.2929 385.28 56.2929 383.42 56.2929 381.857 56.7256 380.585 57.5909 379.316 58.4566 378.303 59.6486 377.562 61.1723 376.815 62.696 376.287 64.4497 375.975 66.4386 375.674 68.3348 375.663 70.0424 375.946 71.5664 376.226 73.0901 376.846 74.2914 377.814 75.1755 378.781 76.0589 380.146 76.5011 381.91 76.5011 383.809 76.5011 385.411 76.0043 386.719 75.0093 388.03 74.0153 388.866 72.4782 389.238 70.3971L400.528 70.3971C399.504 75.6542 397.317 79.5163 393.962 81.979 390.606 84.4417 386.311 85.6706 381.074 85.6706Z" fill="#FFFFFF" fill-rule="nonzero" fill-opacity="1" transform="matrix(1 0 0 1.00117 716.592 -205.596)"/><path d="M410.148 132.969 418.093 95.4527 421.689 95.4527 414.305 129.931 432.699 129.931 432.058 132.969 410.152 132.969Z" fill="#FFFFFF" fill-rule="nonzero" fill-opacity="1" transform="matrix(1 0 0 1.00117 716.592 -205.596)"/><path d="M433.946 132.969 456.274 95.4527 460.087 95.4527 466.192 132.969 462.595 132.969 461.118 121.318 444.506 121.318 437.819 132.969 433.943 132.969ZM446.271 118.252 460.54 118.252 457.528 99.048 446.271 118.252Z" fill="#FFFFFF" fill-rule="nonzero" fill-opacity="1" transform="matrix(1 0 0 1.00117 716.592 -205.596)"/><path d="M471.575 132.969 479.519 95.4527 490.639 95.4527C493.147 95.4527 495.249 95.8896 496.935 96.7645 498.626 97.6394 499.827 98.8726 500.532 100.47 501.237 102.067 501.351 103.955 500.869 106.128 500.497 107.817 499.614 109.295 498.222 110.56 496.826 111.826 495.135 112.65 493.147 113.042 494.71 113.414 496.064 114.054 497.205 114.966 498.346 115.877 499.161 117.046 499.643 118.478 500.128 119.91 500.153 121.618 499.728 123.606 499.373 125.35 498.594 126.939 497.382 128.357 496.173 129.774 494.512 130.902 492.393 131.73 490.277 132.559 487.655 132.969 484.537 132.969L471.578 132.969ZM475.724 129.931 484.866 129.931C487.896 129.931 490.426 129.351 492.463 128.19 494.497 127.031 495.755 125.313 496.237 123.049 496.776 120.393 496.298 118.367 494.802 116.973 493.303 115.578 491.064 114.883 488.07 114.883L478.931 114.883 475.724 129.935ZM479.629 111.79 487.74 111.79C490.568 111.79 492.793 111.232 494.427 110.118 496.064 109.004 497.084 107.49 497.495 105.575 497.942 103.365 497.548 101.63 496.326 100.378 495.1 99.1256 492.988 98.4952 490.001 98.4952L482.474 98.4952 479.629 111.79Z" fill="#FFFFFF" fill-rule="nonzero" fill-opacity="1" transform="matrix(1 0 0 1.00117 716.592 -205.596)"/><path d="M87.0653 29.2121C87.0929 29.4376 86.8722 29.5849 86.7294 29.7185 86.0434 30.3582 85.1507 30.9521 84.4279 31.5781 75.2031 39.574 66.8157 50.3916 60.9696 61.1263 56.744 68.8922 53.3837 77.196 51.9568 85.9835L51.7771 86.1032C47.6064 74.8254 44.0576 62.9905 43.2334 50.898 43.1002 48.914 43.0126 46.8194 43.0495 44.8354 43.0587 44.3383 43.1048 42.5754 43.3394 42.2529 54.332 32.9223 69.2741 28.4525 83.6359 28.9865 84.75 29.0279 85.9558 29.318 87.0607 29.2167Z" fill="#FFFFFF" fill-rule="nonzero" fill-opacity="1" transform="matrix(1 0 0 1.00117 716.592 -205.596)"/><path d="M111.978 37.9306C117.428 41.5028 123.859 47.0405 127.509 52.4954 127.611 52.6424 128.195 53.4482 128.09 53.5446 124.504 53.0244 120.872 52.6977 117.249 52.6378 101.657 52.3756 81.8684 55.5194 67.9758 62.7375L63.3544 65.3703C64.0401 63.971 64.7675 62.5624 65.5592 61.2138 72.386 49.5351 81.5832 38.8235 91.9358 30.1925 92.4004 29.99 96.0969 30.8739 96.8521 31.0626 102.16 32.4067 107.407 34.9247 111.978 37.926Z" fill="#FFFFFF" fill-rule="nonzero" fill-opacity="1" transform="matrix(1 0 0 1.00117 716.592 -205.596)"/><path d="M58.857 107.509C54.0187 105.911 49.2729 103.964 44.711 101.695 37.59 98.1546 29.6356 93.1739 23.7941 87.7371 23.4212 87.392 21.4603 85.4959 21.3728 85.206 21.2163 84.6901 21.3866 83.2908 21.451 82.6788 21.9252 78.0294 23.1911 73.1638 24.7792 68.777 27.8541 60.2978 32.7105 52.5 39.1414 46.2209 39.0999 57.2181 41.2448 68.0403 44.6511 78.439 48.0579 88.8374 52.753 98.5412 58.8662 107.504L58.8662 107.504Z" fill="#FFFFFF" fill-rule="nonzero" fill-opacity="1" transform="matrix(1 0 0 1.00117 716.592 -205.596)"/><path d="M100.779 109.423C99.8807 111.914 99.048 114.432 98.0533 116.885 94.4857 125.728 89.3671 134.994 83.4662 142.484 81.9191 144.444 80.2483 146.309 78.444 148.04 76.0589 148.109 73.6514 148.016 71.2858 147.708 66.6594 147.11 61.3428 145.618 57.0247 143.865 51.1648 141.485 45.4201 137.857 40.9826 133.36 45.1759 133.038 49.342 132.366 53.439 131.427 68.9382 127.868 83.8021 120.696 97.0958 112.126L100.774 109.428Z" fill="#FFFFFF" fill-rule="nonzero" fill-opacity="1" transform="matrix(1 0 0 1.00117 716.592 -205.596)"/><path d="M131.431 58.0835C138.714 69.1728 141.724 83.1249 139.441 96.2394 134.764 90.6375 129.268 85.6245 123.505 81.1501 112.83 72.8687 100.682 65.6283 88.0231 60.864L85.7213 60.1319C85.7213 59.9753 88.4005 59.4966 88.7322 59.4367 95.9311 58.0742 103.402 57.1444 110.717 56.8085 117.608 56.4953 124.678 56.6381 131.427 58.0788Z" fill="#FFFFFF" fill-rule="nonzero" fill-opacity="1" transform="matrix(1 0 0 1.00117 716.592 -205.596)"/><path d="M21.428 91.2863C21.4603 91.4801 21.7134 91.7239 21.8561 91.8437 34.6071 102.693 51.28 110.8 67.3961 115.449L77.8448 118.151C77.2236 118.473 76.5794 118.777 75.9348 119.048 68.9974 122.009 61.8261 124.849 54.5159 126.759 48.7896 128.255 42.7455 129.369 36.8211 128.849 26.9703 119.169 22.0679 105.028 21.1979 91.337L21.4188 91.2817Z" fill="#FFFFFF" fill-rule="nonzero" fill-opacity="1" transform="matrix(1 0 0 1.00117 716.592 -205.596)"/><path d="M119.725 134.051C119.357 134.603 116.692 136.499 115.988 137.001 106.643 143.644 95.2912 147.69 83.8113 148.289 83.733 148.192 84.1703 147.676 84.262 147.557 87.3282 143.621 90.1407 140.306 92.8933 136.039 101.317 122.98 106.8 108.07 108.876 92.6311 109.036 92.6403 109.05 92.8057 109.101 92.9071 109.557 93.7813 110.004 94.9644 110.39 95.8989 115.26 107.738 118.924 120.582 119.979 133.388 119.992 133.646 119.863 133.843 119.73 134.046L119.73 134.046Z" fill="#FFFFFF" fill-rule="nonzero" fill-opacity="1" transform="matrix(1 0 0 1.00117 716.592 -205.596)"/><path d="M111.527 77.8079C120.32 83.3691 130.989 91.4525 137.236 99.8576 137.517 100.235 138.571 101.611 138.631 101.961 138.677 102.21 138.557 102.855 138.511 103.145 137.07 111.9 132.021 120.397 126.621 127.279 125.802 128.32 124.757 129.351 123.988 130.382 123.891 130.511 123.827 130.667 123.813 130.828 123.601 130.778 123.587 130.534 123.555 130.359 123.367 129.323 123.38 128.034 123.242 126.957 120.821 108.728 113.759 90.6375 104.24 75.0323 104.033 74.6918 103.089 73.4261 103.024 73.2049 102.961 72.975 103.149 73.0164 103.283 73.0579 103.729 73.1915 104.572 73.8084 105.005 74.0338 107.223 75.2169 109.391 76.4639 111.522 77.8079L111.522 77.8079Z" fill="#FFFFFF" fill-rule="nonzero" fill-opacity="1" transform="matrix(1 0 0 1.00117 716.592 -205.596)"/><path d="M805.17 357.324 805.17 496.58" stroke="#FFFFFF" stroke-width="2.42627" stroke-linecap="butt" stroke-linejoin="miter" stroke-miterlimit="8" stroke-opacity="1" fill="none" fill-rule="evenodd" transform="matrix(1 0 0 1.00525 -110.938 -545.764)"/></g></g></g></g></svg>